<svg width="10" height="6" viewBox="0 0 10 6" fill="none" xmlns="http://www.w3.org/2000/svg">
<path fill-rule="evenodd" clip-rule="evenodd" d="M6.37575 0.175794C6.48827 0.0633114 6.64085 0.00012207 6.79995 0.00012207C6.95905 0.00012207 7.11163 0.0633114 7.22415 0.175794L9.62415 2.57579C9.73663 2.68831 9.79982 2.8409 9.79982 2.99999C9.79982 3.15909 9.73663 3.31168 9.62415 3.42419L7.22415 5.82419C7.11099 5.93349 6.95943 5.99396 6.80211 5.9926C6.64479 5.99123 6.4943 5.92813 6.38306 5.81688C6.27181 5.70564 6.20871 5.55515 6.20735 5.39783C6.20598 5.24052 6.26646 5.08896 6.37575 4.97579L7.75155 3.59999H0.799951C0.640821 3.59999 0.488209 3.53678 0.375687 3.42426C0.263165 3.31174 0.199951 3.15912 0.199951 2.99999C0.199951 2.84086 0.263165 2.68825 0.375687 2.57573C0.488209 2.46321 0.640821 2.39999 0.799951 2.39999H7.75155L6.37575 1.02419C6.26327 0.911677 6.20008 0.759092 6.20008 0.599994C6.20008 0.440895 6.26327 0.288311 6.37575 0.175794V0.175794Z" fill="#1A56DB"/>
</svg>
