<svg width="20" height="20" viewBox="0 0 20 20" fill="none" xmlns="http://www.w3.org/2000/svg">
<mask id="mask0_1_9801" style="mask-type:alpha" maskUnits="userSpaceOnUse" x="0" y="0" width="20" height="20">
<rect width="20" height="20" fill="#D9D9D9"/>
</mask>
<g mask="url(#mask0_1_9801)">
<path d="M3.33335 17.5C2.87502 17.5 2.48266 17.3368 2.15627 17.0104C1.82988 16.684 1.66669 16.2916 1.66669 15.8333V6.66663C1.66669 6.20829 1.82988 5.81593 2.15627 5.48954C2.48266 5.16315 2.87502 4.99996 3.33335 4.99996H6.66669V3.33329C6.66669 2.87496 6.82988 2.4826 7.15627 2.15621C7.48266 1.82982 7.87502 1.66663 8.33335 1.66663H11.6667C12.125 1.66663 12.5174 1.82982 12.8438 2.15621C13.1702 2.4826 13.3334 2.87496 13.3334 3.33329V4.99996H16.6667C17.125 4.99996 17.5174 5.16315 17.8438 5.48954C18.1702 5.81593 18.3334 6.20829 18.3334 6.66663V15.8333C18.3334 16.2916 18.1702 16.684 17.8438 17.0104C17.5174 17.3368 17.125 17.5 16.6667 17.5H3.33335ZM8.33335 4.99996H11.6667V3.33329H8.33335V4.99996ZM16.6667 12.5H12.5V14.1666H7.50002V12.5H3.33335V15.8333H16.6667V12.5ZM9.16669 12.5H10.8334V10.8333H9.16669V12.5ZM3.33335 10.8333H7.50002V9.16663H12.5V10.8333H16.6667V6.66663H3.33335V10.8333Z" fill="#1A56DB"/>
</g>
</svg>
