<svg width="84" height="84" viewBox="0 0 84 84" fill="none" xmlns="http://www.w3.org/2000/svg">
<mask id="mask0_8_32598" style="mask-type:alpha" maskUnits="userSpaceOnUse" x="0" y="0" width="84" height="84">
<rect width="84" height="84" fill="#D9D9D9"/>
</mask>
<g mask="url(#mask0_8_32598)">
<path d="M30.275 78.75L23.625 67.375L10.4125 64.6625L11.9 51.8L3.5 42L11.9 32.2875L10.4125 19.425L23.625 16.7125L30.275 5.25L42 10.675L53.725 5.25L60.4625 16.7125L73.5875 19.425L72.1 32.2875L80.5 42L72.1 51.8L73.5875 64.6625L60.4625 67.375L53.725 78.75L42 73.325L30.275 78.75ZM32.6375 71.8375L42 67.9L51.625 71.8375L57.4875 63.0875L67.725 60.4625L66.675 50.05L73.7625 42L66.675 33.775L67.725 23.3625L57.4875 20.9125L51.45 12.1625L42 16.1L32.375 12.1625L26.5125 20.9125L16.275 23.3625L17.325 33.775L10.2375 42L17.325 50.05L16.275 60.6375L26.5125 63.0875L32.6375 71.8375ZM38.2375 53.6375L58.1 33.95L54.1625 30.3625L38.2375 46.1125L29.925 37.45L25.9 41.3875L38.2375 53.6375Z" fill="#1C1B1F"/>
</g>
</svg>
