<svg width="16" height="16" viewBox="0 0 16 16" fill="none" xmlns="http://www.w3.org/2000/svg">
<path d="M10.62 11.42L10.6201 10.92C10.5405 10.92 10.4643 10.8884 10.408 10.8321L10.4079 10.832L8.68234 9.10654C8.76763 9.05395 8.84723 8.99125 8.91924 8.91924C8.99123 8.84725 9.05391 8.76768 9.1065 8.68241L10.832 10.4079C10.832 10.4079 10.832 10.4079 10.832 10.408C10.874 10.4499 10.9025 10.5033 10.9141 10.5615C10.9256 10.6197 10.9197 10.68 10.897 10.7348C10.8743 10.7896 10.8359 10.8365 10.7865 10.8694C10.7372 10.9024 10.6792 10.92 10.6199 10.92L10.62 11.42ZM10.62 11.42C10.4078 11.42 10.2044 11.3356 10.0544 11.1856L11.1856 10.0544C11.2974 10.1663 11.3736 10.3088 11.4045 10.464C11.4353 10.6191 11.4195 10.78 11.3589 10.9261C11.2984 11.0723 11.1959 11.1972 11.0644 11.2851C10.9328 11.373 10.7782 11.42 10.62 11.42ZM8.00056 1.1H8C6.63531 1.1 5.30127 1.50468 4.16657 2.26286C3.03187 3.02104 2.14748 4.09868 1.62523 5.35949C1.10299 6.6203 0.966347 8.00766 1.23259 9.34612C1.49882 10.6846 2.15598 11.9141 3.12097 12.879C4.08595 13.844 5.31541 14.5012 6.65388 14.7674C7.99235 15.0337 9.37971 14.897 10.6405 14.3748C11.9013 13.8525 12.979 12.9681 13.7371 11.8334C14.4953 10.6987 14.9 9.36469 14.9 8L14.9 7.99944C14.8979 6.17023 14.1704 4.41652 12.8769 3.12307C11.5835 1.82962 9.82978 1.10206 8.00056 1.1ZM8.3 4.8V6.74263C8.20191 6.72016 8.10078 6.70899 7.99854 6.70988C7.8971 6.71076 7.79697 6.72349 7.7 6.74729V4.8C7.7 4.72044 7.73161 4.64413 7.78787 4.58787C7.84413 4.53161 7.92044 4.5 8 4.5C8.07957 4.5 8.15587 4.53161 8.21213 4.58787C8.2684 4.64413 8.3 4.72044 8.3 4.8ZM8.00723 7.70984C8.08479 7.70917 8.15955 7.73856 8.21587 7.79177L8.3 7.87591V8C8.3 8.07957 8.2684 8.15587 8.21213 8.21213C8.15587 8.26839 8.07957 8.3 8 8.3C7.92189 8.3 7.84692 8.26954 7.79097 8.21519C7.73834 8.15909 7.70917 8.08463 7.70984 8.00723C7.71053 7.92857 7.74208 7.85332 7.7977 7.7977C7.85332 7.74208 7.92857 7.71053 8.00723 7.70984ZM7.99945 15.5C6.51628 15.4999 5.06644 15.06 3.83323 14.236C2.59986 13.4119 1.63856 12.2406 1.07091 10.8701C0.50325 9.49968 0.354725 7.99168 0.644114 6.53683C0.933503 5.08197 1.64781 3.7456 2.6967 2.6967C3.7456 1.64781 5.08197 0.933503 6.53683 0.644114C7.99168 0.354725 9.49968 0.50325 10.8701 1.07091C12.2406 1.63856 13.4119 2.59986 14.236 3.83323C15.06 5.06644 15.4999 6.51628 15.5 7.99945C15.4978 9.98805 14.7069 11.8946 13.3007 13.3007C11.8946 14.7069 9.98805 15.4978 7.99945 15.5Z" fill="#6B7280" stroke="#6B7280"/>
</svg>
