<svg width="104" height="31" viewBox="0 0 104 31" fill="none" xmlns="http://www.w3.org/2000/svg">
<g clip-path="url(#clip0_8_60513)">
<path d="M0.911865 7.29679C0.911865 5.28186 2.54529 3.64844 4.56022 3.64844H22.802C24.8169 3.64844 26.4503 5.28186 26.4503 7.29679V25.5386C26.4503 27.5534 24.8169 29.1869 22.802 29.1869H4.56022C2.54529 29.1869 0.911865 27.5534 0.911865 25.5386V7.29679Z" fill="white"/>
<path d="M2.73621 5.47241H24.6263V10.9449H2.73621V5.47241Z" fill="#1C64F2"/>
<path fill-rule="evenodd" clip-rule="evenodd" d="M6.38462 5.47253V3.64835H4.56044C2.54551 3.64835 0.912088 5.28177 0.912088 7.29671V25.5385C0.912088 27.5534 2.54551 29.1868 4.56044 29.1868H22.8022C24.8171 29.1868 26.4506 27.5534 26.4506 25.5385V7.29671C26.4506 5.28177 24.8171 3.64835 22.8022 3.64835H20.978V5.47253H16.4176V3.64835H10.9451V5.47253H6.38462ZM16.4176 2.73626H10.9451V2.28022C10.9451 1.02089 9.92416 0 8.66484 0C7.40551 0 6.38462 1.02089 6.38462 2.28022V2.73626H4.56044C2.04178 2.73626 0 4.77805 0 7.29671V25.5385C0 28.0571 2.04178 30.0989 4.56044 30.0989H22.8022C25.3208 30.0989 27.3626 28.0571 27.3626 25.5385V7.29671C27.3626 4.77805 25.3208 2.73626 22.8022 2.73626H20.978V2.28022C20.978 1.02089 19.9571 0 18.6978 0C17.4385 0 16.4176 1.02089 16.4176 2.28022V2.73626ZM17.3297 3.64835V4.56044H20.0659V3.64835H17.3297ZM20.0659 2.73626H17.3297V2.28022C17.3297 1.52462 17.9422 0.912088 18.6978 0.912088C19.4534 0.912088 20.0659 1.52462 20.0659 2.28022V2.73626ZM7.29671 4.56044V3.64835H10.033V4.56044H7.29671ZM7.29671 2.28022V2.73626H10.033V2.28022C10.033 1.52462 9.42041 0.912088 8.66484 0.912088C7.90924 0.912088 7.29671 1.52462 7.29671 2.28022Z" fill="white"/>
<path fill-rule="evenodd" clip-rule="evenodd" d="M7.29648 2.28024C7.29648 1.52464 7.90901 0.912109 8.66461 0.912109C9.42019 0.912109 10.0327 1.52464 10.0327 2.28024V3.64837H17.3295V2.28024C17.3295 1.52464 17.942 0.912109 18.6976 0.912109C19.4532 0.912109 20.0657 1.52464 20.0657 2.28024V3.64837H22.802C24.8169 3.64837 26.4503 5.2818 26.4503 7.29673V25.5385C26.4503 27.5534 24.8169 29.1868 22.802 29.1868H4.56022C2.54529 29.1868 0.911865 27.5534 0.911865 25.5385V7.29673C0.911865 5.2818 2.54529 3.64837 4.56022 3.64837H7.29648V2.28024ZM22.802 5.47255H4.56022C3.55275 5.47255 2.73604 6.28926 2.73604 7.29673V10.9451H24.6262V7.29673C24.6262 6.28926 23.8095 5.47255 22.802 5.47255ZM24.6262 12.7693H2.73604V16.4176V25.5385C2.73604 26.546 3.55275 27.3627 4.56022 27.3627H22.802C23.8095 27.3627 24.6262 26.546 24.6262 25.5385V12.7693ZM19.7503 15.6304C20.1851 16.0859 20.1683 16.8075 19.7128 17.2423L13.0871 23.5668C12.6113 24.021 11.8626 24.021 11.3867 23.5668L8.10542 20.4346C7.64994 19.9998 7.63316 19.2782 8.06793 18.8227C8.5027 18.3672 9.22436 18.3504 9.67986 18.7852L12.237 21.226L18.1384 15.5929C18.5939 15.1581 19.3155 15.1749 19.7503 15.6304Z" fill="#1F2A37"/>
</g>
<path d="M100.643 22.8157L98.2205 19.161L96.0745 22.8157H92.8872L96.7331 16.9087L92.8447 11.0442H96.2019L98.603 14.6776L100.77 11.0442H103.958L100.09 16.9087L104 22.8157H100.643Z" fill="#1F2A37"/>
<path d="M85.8182 23.007C84.6849 23.007 83.665 22.7591 82.7584 22.2633C81.8518 21.7533 81.1365 21.038 80.6123 20.1172C80.1024 19.1965 79.8474 18.1341 79.8474 16.93C79.8474 15.7259 80.1095 14.6635 80.6336 13.7428C81.1719 12.822 81.9014 12.1138 82.8222 11.618C83.7429 11.108 84.7699 10.853 85.9031 10.853C87.0364 10.853 88.0634 11.108 88.9841 11.618C89.9049 12.1138 90.6273 12.822 91.1514 13.7428C91.6897 14.6635 91.9589 15.7259 91.9589 16.93C91.9589 18.1341 91.6826 19.1965 91.1302 20.1172C90.5919 21.038 89.8553 21.7533 88.9204 22.2633C87.9996 22.7591 86.9656 23.007 85.8182 23.007ZM85.8182 20.4147C86.3564 20.4147 86.8593 20.2872 87.3268 20.0322C87.8084 19.7631 88.1909 19.3665 88.4742 18.8423C88.7575 18.3182 88.8991 17.6808 88.8991 16.93C88.8991 15.8109 88.6017 14.9539 88.0067 14.359C87.4259 13.7499 86.7106 13.4453 85.8606 13.4453C85.0107 13.4453 84.2954 13.7499 83.7146 14.359C83.148 14.9539 82.8647 15.8109 82.8647 16.93C82.8647 18.0491 83.1409 18.9132 83.6933 19.5223C84.2599 20.1172 84.9682 20.4147 85.8182 20.4147Z" fill="#1F2A37"/>
<path d="M69.1651 12.7653C69.5475 12.1987 70.0716 11.7383 70.7374 11.3842C71.4174 11.03 72.1894 10.853 73.0535 10.853C74.0592 10.853 74.9658 11.1009 75.7732 11.5967C76.5948 12.0924 77.2394 12.8007 77.7068 13.7215C78.1885 14.6281 78.4293 15.6834 78.4293 16.8875C78.4293 18.0915 78.1885 19.161 77.7068 20.0959C77.2394 21.0167 76.5948 21.732 75.7732 22.242C74.9658 22.752 74.0592 23.0069 73.0535 23.0069C72.1752 23.0069 71.4032 22.8369 70.7374 22.497C70.0858 22.1428 69.5617 21.6895 69.1651 21.1371V22.8157H66.1903V7.09204H69.1651V12.7653ZM75.3908 16.8875C75.3908 16.1792 75.242 15.5701 74.9446 15.0601C74.6613 14.536 74.2788 14.1394 73.7972 13.8702C73.3297 13.6011 72.8197 13.4665 72.2673 13.4665C71.729 13.4665 71.219 13.6082 70.7374 13.8915C70.27 14.1606 69.8875 14.5572 69.59 15.0814C69.3067 15.6055 69.1651 16.2217 69.1651 16.9299C69.1651 17.6382 69.3067 18.2544 69.59 18.7785C69.8875 19.3027 70.27 19.7064 70.7374 19.9897C71.219 20.2588 71.729 20.3934 72.2673 20.3934C72.8197 20.3934 73.3297 20.2517 73.7972 19.9684C74.2788 19.6851 74.6613 19.2814 74.9446 18.7573C75.242 18.2332 75.3908 17.6099 75.3908 16.8875Z" fill="#1F2A37"/>
<path d="M51.0249 16.8875C51.0249 15.6976 51.2586 14.6423 51.7261 13.7215C52.2077 12.8008 52.8522 12.0925 53.6597 11.5967C54.4813 11.1009 55.3949 10.853 56.4007 10.853C57.279 10.853 58.0439 11.0301 58.6955 11.3842C59.3613 11.7384 59.8925 12.1846 60.2891 12.7229V11.0443H63.2851V22.8158H60.2891V21.0947C59.9066 21.6471 59.3754 22.1075 58.6955 22.4758C58.0297 22.8299 57.2577 23.007 56.3794 23.007C55.3879 23.007 54.4813 22.752 53.6597 22.2421C52.8522 21.7321 52.2077 21.0167 51.7261 20.096C51.2586 19.1611 51.0249 18.0916 51.0249 16.8875ZM60.2891 16.93C60.2891 16.2076 60.1475 15.5914 59.8641 15.0814C59.5808 14.5573 59.1984 14.1607 58.7167 13.8915C58.2351 13.6082 57.7181 13.4666 57.1656 13.4666C56.6132 13.4666 56.1032 13.6011 55.6358 13.8703C55.1683 14.1394 54.7858 14.536 54.4884 15.0602C54.205 15.5701 54.0634 16.1792 54.0634 16.8875C54.0634 17.5958 54.205 18.2191 54.4884 18.7574C54.7858 19.2815 55.1683 19.6852 55.6358 19.9685C56.1174 20.2518 56.6273 20.3935 57.1656 20.3935C57.7181 20.3935 58.2351 20.2589 58.7167 19.9897C59.1984 19.7064 59.5808 19.3098 59.8641 18.7998C60.1475 18.2757 60.2891 17.6524 60.2891 16.93Z" fill="#1F2A37"/>
<path d="M46.0722 22.8156L40.6752 16.2074V22.8156H37.7004V7.98438H40.6752V14.6351L46.0722 7.98438H49.6632L43.5437 15.3362L49.8332 22.8156H46.0722Z" fill="#1F2A37"/>
<defs>
<clipPath id="clip0_8_60513">
<rect width="27.3626" height="30.0989" fill="white"/>
</clipPath>
</defs>
</svg>
