<svg width="113" height="30" viewBox="0 0 113 30" fill="none" xmlns="http://www.w3.org/2000/svg">
<path d="M31.1613 22.0645C28.8387 19.4032 27.7258 15.4355 27.7258 9.82258V6.91935C27.7258 5.03226 26.1774 3.43548 24.2419 3.43548H20.7581V0H18.4355V8.66129H20.7581V5.75806H24.2419C24.871 5.75806 25.4032 6.29032 25.4032 6.91935V9.82258C25.4032 15.6774 26.5645 20.0323 28.9839 23.0806H7.5C7.01613 23.0806 6.58064 22.8871 6.24193 22.5484C3.62903 19.9355 2.32258 15.7258 2.32258 9.77419V6.87097C2.32258 6.24194 2.85484 5.70968 3.48387 5.70968H4.64516V3.3871H3.48387C1.59677 3.3871 0 4.93548 0 6.87097V26.5161C0 28.4032 1.54839 30 3.48387 30H24.2903C26.1774 30 27.7742 28.4516 27.7742 26.5161V25.3548H29.7097C30.5323 25.3548 31.2097 24.9194 31.5484 24.1935C31.8871 23.4677 31.6935 22.6452 31.1613 22.0645ZM25.4032 26.5645C25.4032 27.1935 24.871 27.7258 24.2419 27.7258H3.48387C2.85484 27.7258 2.32258 27.1935 2.32258 26.5645V21.1452C2.95161 22.3065 3.72581 23.3226 4.59677 24.2419C5.37097 25.0161 6.3871 25.4032 7.5 25.4032H25.4032V26.5645Z" fill="#1C64F2"/>
<path d="M9.82258 5.75806H15.5806V3.48387H9.82258V0H7.5V8.66129H9.82258V5.75806Z" fill="#1C64F2"/>
<path d="M14.6612 18.4839C17.9031 18.4839 20.758 16.6936 22.2096 13.7904L20.1289 12.7742C19.1128 14.8549 16.9838 16.1613 14.6612 16.1613C12.3386 16.1613 10.2096 14.8549 9.19344 12.7742L7.11279 13.7904C8.56441 16.6936 11.4192 18.4839 14.6612 18.4839Z" fill="#1C64F2"/>
<path d="M111.575 22.742H108.955L105.359 17.887L101.737 22.742H99.1167L104.049 16.1402L99.3993 9.89807H102.045L105.359 14.3678L108.673 9.89807H111.293L106.669 16.1145L111.575 22.742Z" fill="#1C64F2"/>
<path d="M97.2312 21.1237C95.9125 22.4252 94.3113 23.076 92.4275 23.076C90.5438 23.076 88.9426 22.4252 87.6239 21.1237C86.3224 19.8222 85.6716 18.221 85.6716 16.3201C85.6716 14.4192 86.3224 12.8179 87.6239 11.5164C88.9426 10.2149 90.5438 9.56415 92.4275 9.56415C94.3113 9.56415 95.9125 10.2149 97.2312 11.5164C98.5498 12.8179 99.2091 14.4192 99.2091 16.3201C99.2091 18.221 98.5498 19.8222 97.2312 21.1237ZM92.4275 20.8925C93.7119 20.8925 94.7908 20.4558 95.6642 19.5824C96.5376 18.709 96.9743 17.6216 96.9743 16.3201C96.9743 15.0185 96.5376 13.9311 95.6642 13.0577C94.7908 12.1843 93.7119 11.7476 92.4275 11.7476C91.1603 11.7476 90.0899 12.1843 89.2166 13.0577C88.3432 13.9311 87.9065 15.0185 87.9065 16.3201C87.9065 17.6216 88.3432 18.709 89.2166 19.5824C90.0899 20.4558 91.1603 20.8925 92.4275 20.8925Z" fill="#1C64F2"/>
<path d="M77.7388 9.56414C79.5369 9.56414 81.0697 10.2235 82.3369 11.5421C83.6042 12.8436 84.2378 14.4363 84.2378 16.3201C84.2378 18.2038 83.6042 19.805 82.3369 21.1237C81.0697 22.4252 79.5369 23.076 77.7388 23.076C75.6153 23.076 73.9969 22.2283 72.8838 20.5329V22.742H70.6489V4.7605H72.8838V12.1072C73.9969 10.4118 75.6153 9.56414 77.7388 9.56414ZM77.4562 20.9182C78.7406 20.9182 79.8195 20.4815 80.6929 19.6081C81.5663 18.7176 82.003 17.6216 82.003 16.3201C82.003 15.0185 81.5663 13.9311 80.6929 13.0577C79.8195 12.1672 78.7406 11.7219 77.4562 11.7219C76.1547 11.7219 75.0672 12.1672 74.1939 13.0577C73.3205 13.9311 72.8838 15.0185 72.8838 16.3201C72.8838 17.6216 73.3205 18.7176 74.1939 19.6081C75.0672 20.4815 76.1547 20.9182 77.4562 20.9182Z" fill="#1C64F2"/>
<path d="M65.542 9.89809H67.7769V22.742H65.542V20.5329C64.4289 22.2283 62.8106 23.076 60.687 23.076C58.8889 23.076 57.3562 22.4252 56.0889 21.1237C54.8216 19.8051 54.188 18.2038 54.188 16.3201C54.188 14.4363 54.8216 12.8436 56.0889 11.5421C57.3562 10.2235 58.8889 9.56415 60.687 9.56415C62.8106 9.56415 64.4289 10.4118 65.542 12.1072V9.89809ZM60.9696 20.9182C62.2711 20.9182 63.3586 20.4815 64.232 19.6081C65.1053 18.7176 65.542 17.6216 65.542 16.3201C65.542 15.0185 65.1053 13.9311 64.232 13.0577C63.3586 12.1672 62.2711 11.7219 60.9696 11.7219C59.6852 11.7219 58.6063 12.1672 57.7329 13.0577C56.8595 13.9311 56.4228 15.0185 56.4228 16.3201C56.4228 17.6216 56.8595 18.7176 57.7329 19.6081C58.6063 20.4815 59.6852 20.9182 60.9696 20.9182Z" fill="#1C64F2"/>
<path d="M54.6791 22.742H51.7507L43.993 14.1108V22.742H41.604V4.76044H43.993V12.8778L51.4938 4.76044H54.4223L46.4847 13.4943L54.6791 22.742Z" fill="#1C64F2"/>
<path fill-rule="evenodd" clip-rule="evenodd" d="M111.576 22.742L106.669 16.1145L111.293 9.89805H108.673L105.359 14.3677L102.045 9.89805H99.3995L104.049 16.1402L99.1169 22.742H101.737L105.359 17.887L108.955 22.742H111.576ZM105.358 18.3736L108.809 23.0323H112.152L107.031 16.1149L111.871 9.60773H108.527L105.359 13.8803L102.191 9.60773H98.8212L103.687 16.14L98.5376 23.0323H101.883L105.358 18.3736Z" fill="#1C64F2"/>
<path fill-rule="evenodd" clip-rule="evenodd" d="M92.4276 23.076C94.3114 23.076 95.9126 22.4252 97.2312 21.1237C98.5499 19.8222 99.2092 18.2209 99.2092 16.32C99.2092 14.4191 98.5499 12.8179 97.2312 11.5164C95.9126 10.2149 94.3114 9.56413 92.4276 9.56413C90.5438 9.56413 88.9426 10.2149 87.624 11.5164C86.3224 12.8179 85.6717 14.4191 85.6717 16.32C85.6717 18.2209 86.3224 19.8222 87.624 21.1237C88.9426 22.4252 90.5438 23.076 92.4276 23.076ZM95.6643 19.5824C94.7909 20.4558 93.712 20.8925 92.4276 20.8925C91.1603 20.8925 90.09 20.4558 89.2166 19.5824C88.3432 18.709 87.9065 17.6216 87.9065 16.32C87.9065 15.0185 88.3432 13.9311 89.2166 13.0577C90.09 12.1843 91.1603 11.7476 92.4276 11.7476C93.712 11.7476 94.7909 12.1843 95.6643 13.0577C96.5377 13.9311 96.9743 15.0185 96.9743 16.32C96.9743 17.6216 96.5377 18.709 95.6643 19.5824ZM87.42 21.3303L87.4187 21.329C86.0607 19.971 85.3813 18.2951 85.3813 16.32C85.3813 14.345 86.0607 12.669 87.4187 11.3111L87.42 11.3098C88.794 9.95364 90.4689 9.2738 92.4276 9.2738C94.3863 9.2738 96.0612 9.95364 97.4352 11.3098C98.8107 12.6674 99.4995 14.3437 99.4995 16.32C99.4995 18.2963 98.8107 19.9727 97.4352 21.3303C96.0612 22.6865 94.3863 23.3663 92.4276 23.3663C90.4689 23.3663 88.794 22.6865 87.42 21.3303ZM92.4276 20.6022C93.6384 20.6022 94.6424 20.1937 95.459 19.3771C96.2747 18.5613 96.684 17.5492 96.684 16.32C96.684 15.0909 96.2747 14.0787 95.459 13.263C94.6424 12.4464 93.6384 12.0379 92.4276 12.0379C91.2351 12.0379 90.2393 12.4456 89.4219 13.263C88.6061 14.0787 88.1968 15.0909 88.1968 16.32C88.1968 17.5492 88.6061 18.5613 89.4219 19.3771C90.2393 20.1945 91.2351 20.6022 92.4276 20.6022Z" fill="#1C64F2"/>
<path fill-rule="evenodd" clip-rule="evenodd" d="M82.5463 21.3248L82.545 21.3262C81.2237 22.6832 79.6162 23.3663 77.7388 23.3663C75.8388 23.3663 74.3091 22.7101 73.1741 21.3997V23.0323H70.3586V4.47015H73.1741V11.2404C74.3091 9.93 75.8388 9.27379 77.7388 9.27379C79.6172 9.27379 81.2248 9.96616 82.5456 11.3402C83.8674 12.698 84.5282 14.364 84.5282 16.32C84.5282 18.2763 83.8672 19.9503 82.5463 21.3248ZM73.1741 11.6991C73.0738 11.8292 72.977 11.9652 72.8838 12.1072V4.76048H70.649V22.742H72.8838V20.5328C72.977 20.6748 73.0738 20.8109 73.1741 20.941C74.2716 22.3643 75.7931 23.0759 77.7388 23.0759C79.537 23.0759 81.0697 22.4252 82.337 21.1237C83.6042 19.805 84.2379 18.2038 84.2379 16.32C84.2379 14.4363 83.6042 12.8436 82.337 11.5421C81.0697 10.2234 79.537 9.56411 77.7388 9.56411C75.7931 9.56411 74.2716 10.2758 73.1741 11.6991ZM80.4876 13.263L80.4856 13.261C79.6687 12.4279 78.6653 12.0122 77.4563 12.0122C76.2289 12.0122 75.2174 12.4288 74.4012 13.261L74.3992 13.263C73.5834 14.0787 73.1741 15.0909 73.1741 16.32C73.1741 17.5487 73.5832 18.5703 74.4001 19.4037C75.2157 20.2189 76.2276 20.6278 77.4563 20.6278C78.6666 20.6278 79.6703 20.2197 80.4867 19.4037C81.3036 18.5703 81.7127 17.5487 81.7127 16.32C81.7127 15.0909 81.3034 14.0787 80.4876 13.263ZM80.6929 19.6081C79.8195 20.4815 78.7407 20.9182 77.4563 20.9182C76.1547 20.9182 75.0673 20.4815 74.1939 19.6081C73.3205 18.7176 72.8838 17.6215 72.8838 16.32C72.8838 15.0185 73.3205 13.9311 74.1939 13.0577C75.0673 12.1672 76.1547 11.7219 77.4563 11.7219C78.7407 11.7219 79.8195 12.1672 80.6929 13.0577C81.5663 13.9311 82.003 15.0185 82.003 16.32C82.003 17.6215 81.5663 18.7176 80.6929 19.6081Z" fill="#1C64F2"/>
<path fill-rule="evenodd" clip-rule="evenodd" d="M65.5418 9.89807V12.1072C65.4486 11.9652 65.3518 11.8292 65.2515 11.6991C64.1541 10.2758 62.6325 9.56413 60.6868 9.56413C58.8887 9.56413 57.356 10.2234 56.0887 11.5421C54.8214 12.8436 54.1878 14.4363 54.1878 16.32C54.1878 18.2038 54.8214 19.805 56.0887 21.1237C57.356 22.4252 58.8887 23.076 60.6868 23.076C62.6325 23.076 64.1541 22.3643 65.2515 20.941C65.3518 20.8109 65.4486 20.6749 65.5418 20.5329V22.742H67.7767V9.89807H65.5418ZM65.2515 21.3997V23.0323H68.067V9.60775H65.2515V11.2404C64.1166 9.93001 62.5869 9.2738 60.6868 9.2738C58.8085 9.2738 57.2008 9.96619 55.88 11.3402C54.5583 12.698 53.8975 14.364 53.8975 16.32C53.8975 18.2763 54.5584 19.9503 55.8794 21.3249L55.8807 21.3262C57.202 22.6832 58.8094 23.3663 60.6868 23.3663C62.5869 23.3663 64.1166 22.7101 65.2515 21.3997ZM64.2317 19.6081C63.3584 20.4815 62.2709 20.9182 60.9694 20.9182C59.685 20.9182 58.6061 20.4815 57.7327 19.6081C56.8593 18.7176 56.4226 17.6216 56.4226 16.32C56.4226 15.0185 56.8593 13.9311 57.7327 13.0577C58.6061 12.1672 59.685 11.7219 60.9694 11.7219C62.2709 11.7219 63.3584 12.1672 64.2317 13.0577C65.1051 13.9311 65.5418 15.0185 65.5418 16.32C65.5418 17.6216 65.1051 18.7176 64.2317 19.6081ZM64.0254 19.4038C63.2098 20.2189 62.198 20.6279 60.9694 20.6279C59.7591 20.6279 58.7554 20.2197 57.939 19.4038C57.122 18.5703 56.713 17.5487 56.713 16.32C56.713 15.0909 57.1222 14.0787 57.938 13.263L57.94 13.261C58.757 12.428 59.7604 12.0122 60.9694 12.0122C62.1967 12.0122 63.2083 12.4288 64.0245 13.261L64.0265 13.263C64.8422 14.0787 65.2515 15.0909 65.2515 16.32C65.2515 17.5487 64.8424 18.5703 64.0254 19.4038Z" fill="#1C64F2"/>
<path fill-rule="evenodd" clip-rule="evenodd" d="M55.3243 23.0323H51.6213L44.2833 14.8681V23.0323H41.3137V4.47009H44.2833V12.1358L51.3669 4.47009H55.0785L46.8748 13.4968L55.3243 23.0323ZM46.4847 13.4943L54.4223 4.76041H51.4939L43.993 12.8778V4.76041H41.604V22.7419H43.993V14.1108L51.7508 22.7419H54.6792L46.4847 13.4943Z" fill="#1C64F2"/>
</svg>
