<svg width="18" height="18" viewBox="0 0 18 18" fill="none" xmlns="http://www.w3.org/2000/svg">
<mask id="mask0_1_10460" style="mask-type:alpha" maskUnits="userSpaceOnUse" x="0" y="0" width="18" height="18">
<rect width="18" height="18" fill="#D9D9D9"/>
</mask>
<g mask="url(#mask0_1_10460)">
<path d="M5.25 13.5C4 13.5 2.9375 13.0625 2.0625 12.1875C1.1875 11.3125 0.75 10.25 0.75 9C0.75 7.75 1.1875 6.6875 2.0625 5.8125C2.9375 4.9375 4 4.5 5.25 4.5C6.075 4.5 6.83125 4.70625 7.51875 5.11875C8.20625 5.53125 8.75 6.075 9.15 6.75H17.25V11.25H15.75V13.5H11.25V11.25H9.15C8.75 11.925 8.20625 12.4688 7.51875 12.8813C6.83125 13.2937 6.075 13.5 5.25 13.5ZM5.25 12C6.075 12 6.7375 11.7469 7.2375 11.2406C7.7375 10.7344 8.0375 10.2375 8.1375 9.75H12.75V12H14.25V9.75H15.75V8.25H8.1375C8.0375 7.7625 7.7375 7.26562 7.2375 6.75938C6.7375 6.25313 6.075 6 5.25 6C4.425 6 3.71875 6.29375 3.13125 6.88125C2.54375 7.46875 2.25 8.175 2.25 9C2.25 9.825 2.54375 10.5312 3.13125 11.1187C3.71875 11.7062 4.425 12 5.25 12ZM5.25 10.5C5.6625 10.5 6.01562 10.3531 6.30937 10.0594C6.60313 9.76562 6.75 9.4125 6.75 9C6.75 8.5875 6.60313 8.23438 6.30937 7.94063C6.01562 7.64688 5.6625 7.5 5.25 7.5C4.8375 7.5 4.48438 7.64688 4.19063 7.94063C3.89688 8.23438 3.75 8.5875 3.75 9C3.75 9.4125 3.89688 9.76562 4.19063 10.0594C4.48438 10.3531 4.8375 10.5 5.25 10.5Z" fill="#1A56DB"/>
</g>
</svg>
