<svg width="18" height="18" viewBox="0 0 18 18" fill="none" xmlns="http://www.w3.org/2000/svg">
<mask id="mask0_1_10457" style="mask-type:alpha" maskUnits="userSpaceOnUse" x="0" y="0" width="18" height="18">
<rect width="18" height="18" fill="#D9D9D9"/>
</mask>
<g mask="url(#mask0_1_10457)">
<path d="M1.5 14.25V12.75H16.5V14.25H1.5ZM2.3625 9.7125L1.3875 9.15L2.025 8.025H0.75V6.9H2.025L1.3875 5.8125L2.3625 5.25L3 6.3375L3.6375 5.25L4.6125 5.8125L3.975 6.9H5.25V8.025H3.975L4.6125 9.15L3.6375 9.7125L3 8.5875L2.3625 9.7125ZM8.3625 9.7125L7.3875 9.15L8.025 8.025H6.75V6.9H8.025L7.3875 5.8125L8.3625 5.25L9 6.3375L9.6375 5.25L10.6125 5.8125L9.975 6.9H11.25V8.025H9.975L10.6125 9.15L9.6375 9.7125L9 8.5875L8.3625 9.7125ZM14.3625 9.7125L13.3875 9.15L14.025 8.025H12.75V6.9H14.025L13.3875 5.8125L14.3625 5.25L15 6.3375L15.6375 5.25L16.6125 5.8125L15.975 6.9H17.25V8.025H15.975L16.6125 9.15L15.6375 9.7125L15 8.5875L14.3625 9.7125Z" fill="#1A56DB"/>
</g>
</svg>
