<svg width="20" height="20" viewBox="0 0 20 20" fill="none" xmlns="http://www.w3.org/2000/svg">
<mask id="mask0_1_9797" style="mask-type:alpha" maskUnits="userSpaceOnUse" x="0" y="0" width="20" height="20">
<rect width="20" height="20" fill="#D9D9D9"/>
</mask>
<g mask="url(#mask0_1_9797)">
<path d="M0.833313 16.6667V14.3334C0.833313 13.8612 0.954841 13.4271 1.1979 13.0313C1.44095 12.6355 1.76387 12.3334 2.16665 12.125C3.02776 11.6945 3.90276 11.3716 4.79165 11.1563C5.68054 10.941 6.58331 10.8334 7.49998 10.8334C8.41665 10.8334 9.31942 10.941 10.2083 11.1563C11.0972 11.3716 11.9722 11.6945 12.8333 12.125C13.2361 12.3334 13.559 12.6355 13.8021 13.0313C14.0451 13.4271 14.1666 13.8612 14.1666 14.3334V16.6667H0.833313ZM15.8333 16.6667V14.1667C15.8333 13.5556 15.6632 12.9688 15.3229 12.4063C14.9826 11.8438 14.5 11.3612 13.875 10.9584C14.5833 11.0417 15.25 11.1841 15.875 11.3855C16.5 11.5868 17.0833 11.8334 17.625 12.125C18.125 12.4028 18.5069 12.7118 18.7708 13.0521C19.0347 13.3924 19.1666 13.7639 19.1666 14.1667V16.6667H15.8333ZM7.49998 10C6.58331 10 5.79859 9.67365 5.14581 9.02087C4.49304 8.3681 4.16665 7.58337 4.16665 6.66671C4.16665 5.75004 4.49304 4.96532 5.14581 4.31254C5.79859 3.65976 6.58331 3.33337 7.49998 3.33337C8.41665 3.33337 9.20137 3.65976 9.85415 4.31254C10.5069 4.96532 10.8333 5.75004 10.8333 6.66671C10.8333 7.58337 10.5069 8.3681 9.85415 9.02087C9.20137 9.67365 8.41665 10 7.49998 10ZM15.8333 6.66671C15.8333 7.58337 15.5069 8.3681 14.8541 9.02087C14.2014 9.67365 13.4166 10 12.5 10C12.3472 10 12.1528 9.98268 11.9166 9.94796C11.6805 9.91324 11.4861 9.87504 11.3333 9.83337C11.7083 9.38893 11.9965 8.89587 12.1979 8.35421C12.3993 7.81254 12.5 7.25004 12.5 6.66671C12.5 6.08337 12.3993 5.52087 12.1979 4.97921C11.9965 4.43754 11.7083 3.94449 11.3333 3.50004C11.5278 3.4306 11.7222 3.38546 11.9166 3.36462C12.1111 3.34379 12.3055 3.33337 12.5 3.33337C13.4166 3.33337 14.2014 3.65976 14.8541 4.31254C15.5069 4.96532 15.8333 5.75004 15.8333 6.66671ZM2.49998 15H12.5V14.3334C12.5 14.1806 12.4618 14.0417 12.3854 13.9167C12.309 13.7917 12.2083 13.6945 12.0833 13.625C11.3333 13.25 10.5764 12.9688 9.81248 12.7813C9.04859 12.5938 8.27776 12.5 7.49998 12.5C6.7222 12.5 5.95137 12.5938 5.18748 12.7813C4.42359 12.9688 3.66665 13.25 2.91665 13.625C2.79165 13.6945 2.69095 13.7917 2.61456 13.9167C2.53817 14.0417 2.49998 14.1806 2.49998 14.3334V15ZM7.49998 8.33337C7.95831 8.33337 8.35067 8.17018 8.67706 7.84379C9.00345 7.5174 9.16665 7.12504 9.16665 6.66671C9.16665 6.20837 9.00345 5.81601 8.67706 5.48962C8.35067 5.16324 7.95831 5.00004 7.49998 5.00004C7.04165 5.00004 6.64929 5.16324 6.3229 5.48962C5.99651 5.81601 5.83331 6.20837 5.83331 6.66671C5.83331 7.12504 5.99651 7.5174 6.3229 7.84379C6.64929 8.17018 7.04165 8.33337 7.49998 8.33337Z" fill="#1A56DB"/>
</g>
</svg>
