<svg width="20" height="20" viewBox="0 0 20 20" fill="none" xmlns="http://www.w3.org/2000/svg">
<mask id="mask0_1_9807" style="mask-type:alpha" maskUnits="userSpaceOnUse" x="0" y="0" width="20" height="20">
<rect width="20" height="20" fill="#D9D9D9"/>
</mask>
<g mask="url(#mask0_1_9807)">
<path d="M9.99998 10C9.08331 10 8.29859 9.67365 7.64581 9.02087C6.99304 8.3681 6.66665 7.58337 6.66665 6.66671C6.66665 5.75004 6.99304 4.96532 7.64581 4.31254C8.29859 3.65976 9.08331 3.33337 9.99998 3.33337C10.9166 3.33337 11.7014 3.65976 12.3541 4.31254C13.0069 4.96532 13.3333 5.75004 13.3333 6.66671C13.3333 7.58337 13.0069 8.3681 12.3541 9.02087C11.7014 9.67365 10.9166 10 9.99998 10ZM3.33331 16.6667V14.3334C3.33331 13.8612 3.45484 13.4271 3.6979 13.0313C3.94095 12.6355 4.26387 12.3334 4.66665 12.125C5.52776 11.6945 6.40276 11.3716 7.29165 11.1563C8.18054 10.941 9.08331 10.8334 9.99998 10.8334C10.9166 10.8334 11.8194 10.941 12.7083 11.1563C13.5972 11.3716 14.4722 11.6945 15.3333 12.125C15.7361 12.3334 16.059 12.6355 16.3021 13.0313C16.5451 13.4271 16.6666 13.8612 16.6666 14.3334V16.6667H3.33331ZM4.99998 15H15V14.3334C15 14.1806 14.9618 14.0417 14.8854 13.9167C14.809 13.7917 14.7083 13.6945 14.5833 13.625C13.8333 13.25 13.0764 12.9688 12.3125 12.7813C11.5486 12.5938 10.7778 12.5 9.99998 12.5C9.2222 12.5 8.45137 12.5938 7.68748 12.7813C6.92359 12.9688 6.16665 13.25 5.41665 13.625C5.29165 13.6945 5.19095 13.7917 5.11456 13.9167C5.03817 14.0417 4.99998 14.1806 4.99998 14.3334V15ZM9.99998 8.33337C10.4583 8.33337 10.8507 8.17018 11.1771 7.84379C11.5035 7.5174 11.6666 7.12504 11.6666 6.66671C11.6666 6.20837 11.5035 5.81601 11.1771 5.48962C10.8507 5.16324 10.4583 5.00004 9.99998 5.00004C9.54165 5.00004 9.14929 5.16324 8.8229 5.48962C8.49651 5.81601 8.33331 6.20837 8.33331 6.66671C8.33331 7.12504 8.49651 7.5174 8.8229 7.84379C9.14929 8.17018 9.54165 8.33337 9.99998 8.33337Z" fill="#1A56DB"/>
</g>
</svg>
